<svg width="1500" height="500" viewBox="0 0 1500 500" fill="none" xmlns="http://www.w3.org/2000/svg">
<path d="M569.832 321V214.091H598.578V232.744H599.692C601.641 226.109 604.912 221.098 609.506 217.71C614.099 214.277 619.389 212.56 625.375 212.56C626.86 212.56 628.461 212.652 630.178 212.838C631.894 213.024 633.402 213.279 634.702 213.604V239.913C633.31 239.496 631.384 239.125 628.925 238.8C626.465 238.475 624.215 238.312 622.173 238.312C617.812 238.312 613.914 239.264 610.48 241.166C607.093 243.022 604.402 245.621 602.406 248.962C600.457 252.303 599.483 256.154 599.483 260.516V321H569.832ZM650.032 321V214.091H679.682V321H650.032ZM664.926 200.31C660.518 200.31 656.737 198.848 653.581 195.925C650.472 192.955 648.918 189.405 648.918 185.276C648.918 181.192 650.472 177.689 653.581 174.766C656.737 171.796 660.518 170.311 664.926 170.311C669.335 170.311 673.093 171.796 676.202 174.766C679.357 177.689 680.935 181.192 680.935 185.276C680.935 189.405 679.357 192.955 676.202 195.925C673.093 198.848 669.335 200.31 664.926 200.31ZM733.92 323.018C727.099 323.018 721.02 321.835 715.684 319.469C710.348 317.056 706.125 313.506 703.016 308.82C699.954 304.087 698.423 298.194 698.423 291.141C698.423 285.201 699.513 280.213 701.694 276.176C703.875 272.139 706.844 268.891 710.603 266.432C714.362 263.973 718.63 262.116 723.41 260.864C728.236 259.611 733.293 258.729 738.583 258.219C744.801 257.569 749.812 256.966 753.617 256.409C757.422 255.806 760.183 254.924 761.9 253.764C763.617 252.604 764.475 250.887 764.475 248.614V248.196C764.475 243.788 763.083 240.377 760.299 237.964C757.561 235.552 753.664 234.345 748.606 234.345C743.27 234.345 739.024 235.528 735.869 237.895C732.713 240.215 730.625 243.138 729.604 246.665L702.181 244.438C703.573 237.941 706.311 232.327 710.394 227.594C714.478 222.814 719.744 219.149 726.194 216.597C732.69 213.998 740.207 212.699 748.745 212.699C754.684 212.699 760.369 213.395 765.798 214.787C771.273 216.179 776.122 218.337 780.344 221.26C784.613 224.183 787.978 227.942 790.437 232.536C792.896 237.083 794.126 242.535 794.126 248.892V321H766.006V306.175H765.171C763.454 309.516 761.157 312.462 758.281 315.014C755.404 317.52 751.947 319.492 747.91 320.93C743.873 322.322 739.21 323.018 733.92 323.018ZM742.411 302.555C746.773 302.555 750.624 301.697 753.965 299.98C757.306 298.217 759.928 295.85 761.83 292.881C763.733 289.911 764.684 286.547 764.684 282.788V271.443C763.756 272.046 762.48 272.603 760.856 273.114C759.278 273.578 757.492 274.018 755.496 274.436C753.501 274.807 751.506 275.155 749.511 275.48C747.515 275.759 745.706 276.014 744.082 276.246C740.602 276.756 737.562 277.568 734.964 278.682C732.365 279.795 730.347 281.304 728.908 283.206C727.47 285.062 726.751 287.382 726.751 290.166C726.751 294.203 728.212 297.289 731.136 299.423C734.105 301.511 737.864 302.555 742.411 302.555ZM873.994 214.091V236.364H809.612V214.091H873.994ZM824.229 188.477H853.879V288.148C853.879 290.885 854.297 293.02 855.132 294.551C855.967 296.036 857.127 297.08 858.612 297.683C860.143 298.286 861.907 298.588 863.902 298.588C865.294 298.588 866.686 298.472 868.078 298.24C869.47 297.962 870.537 297.753 871.28 297.614L875.943 319.678C874.458 320.142 872.37 320.675 869.679 321.278C866.988 321.928 863.716 322.322 859.865 322.462C852.719 322.74 846.455 321.789 841.072 319.608C835.736 317.427 831.583 314.04 828.614 309.446C825.644 304.852 824.182 299.052 824.229 292.045V188.477ZM911.614 361.091C907.856 361.091 904.329 360.789 901.035 360.186C897.787 359.629 895.095 358.91 892.961 358.028L899.643 335.895C903.123 336.962 906.255 337.542 909.039 337.635C911.87 337.728 914.306 337.078 916.347 335.686C918.435 334.294 920.129 331.928 921.428 328.587L923.168 324.062L884.817 214.091H915.999L938.133 292.602H939.246L961.589 214.091H992.979L951.427 332.554C949.432 338.308 946.717 343.319 943.283 347.588C939.896 351.903 935.604 355.221 930.407 357.541C925.21 359.908 918.946 361.091 911.614 361.091ZM1008.15 361.091V214.091H1037.39V232.048H1038.71C1040.01 229.171 1041.89 226.248 1044.35 223.278C1046.85 220.262 1050.1 217.757 1054.09 215.761C1058.13 213.72 1063.14 212.699 1069.12 212.699C1076.92 212.699 1084.11 214.741 1090.7 218.824C1097.29 222.861 1102.56 228.963 1106.5 237.129C1110.44 245.25 1112.42 255.435 1112.42 267.685C1112.42 279.61 1110.49 289.679 1106.64 297.892C1102.83 306.059 1097.64 312.253 1091.05 316.476C1084.51 320.652 1077.17 322.74 1069.05 322.74C1063.3 322.74 1058.41 321.789 1054.37 319.886C1050.38 317.984 1047.11 315.594 1044.55 312.717C1042 309.794 1040.05 306.848 1038.71 303.878H1037.8V361.091H1008.15ZM1037.18 267.545C1037.18 273.902 1038.06 279.447 1039.82 284.18C1041.58 288.913 1044.14 292.602 1047.48 295.247C1050.82 297.846 1054.88 299.145 1059.66 299.145C1064.48 299.145 1068.57 297.822 1071.91 295.178C1075.25 292.486 1077.78 288.774 1079.5 284.041C1081.26 279.262 1082.14 273.763 1082.14 267.545C1082.14 261.374 1081.28 255.945 1079.56 251.259C1077.85 246.572 1075.32 242.906 1071.98 240.261C1068.64 237.616 1064.53 236.294 1059.66 236.294C1054.83 236.294 1050.75 237.57 1047.41 240.122C1044.11 242.674 1041.58 246.294 1039.82 250.98C1038.06 255.667 1037.18 261.188 1037.18 267.545ZM1180.91 323.088C1169.91 323.088 1160.44 320.861 1152.51 316.406C1144.62 311.905 1138.54 305.548 1134.27 297.335C1130 289.076 1127.87 279.308 1127.87 268.033C1127.87 257.036 1130 247.384 1134.27 239.078C1138.54 230.772 1144.55 224.299 1152.3 219.659C1160.09 215.019 1169.24 212.699 1179.72 212.699C1186.78 212.699 1193.34 213.836 1199.42 216.109C1205.54 218.337 1210.88 221.701 1215.43 226.202C1220.02 230.703 1223.59 236.364 1226.15 243.185C1228.7 249.959 1229.98 257.894 1229.98 266.989V275.132H1139.7V256.757H1202.06C1202.06 252.488 1201.14 248.706 1199.28 245.412C1197.42 242.117 1194.85 239.542 1191.55 237.686C1188.31 235.784 1184.52 234.832 1180.21 234.832C1175.71 234.832 1171.72 235.876 1168.24 237.964C1164.8 240.006 1162.11 242.767 1160.16 246.247C1158.22 249.681 1157.22 253.509 1157.17 257.732V275.202C1157.17 280.491 1158.15 285.062 1160.09 288.913C1162.09 292.765 1164.9 295.734 1168.52 297.822C1172.14 299.911 1176.43 300.955 1181.39 300.955C1184.69 300.955 1187.7 300.491 1190.44 299.562C1193.18 298.634 1195.52 297.242 1197.47 295.386C1199.42 293.53 1200.9 291.257 1201.93 288.565L1229.35 290.375C1227.96 296.964 1225.1 302.718 1220.79 307.636C1216.52 312.509 1211 316.313 1204.22 319.051C1197.49 321.742 1189.72 323.088 1180.91 323.088Z" fill="white"/>
<path d="M502.666 338.516C497.778 337.587 492.528 336.603 486.982 335.583C455.605 329.813 414.545 322.858 376.006 318.174C381.525 305.1 386.425 291.248 390.766 277.485C401.564 243.255 409.659 207.03 415.127 178.911L502.666 338.516ZM286.425 349.624C294.234 348.755 304.318 348.611 316.074 349.067C310.736 354.381 306.429 356.387 303.311 356.866C300.269 357.333 295.03 356.863 286.762 349.909C286.648 349.813 286.536 349.718 286.425 349.624ZM278.477 341.264C278.478 341.265 278.493 341.293 278.518 341.347C278.487 341.291 278.475 341.264 278.477 341.264Z" stroke="white" stroke-width="36"/>
</svg>
